<svg id="SvgjsSvg1035" width="288" height="288" xmlns="http://www.w3.org/2000/svg" version="1.1" xmlns:xlink="http://www.w3.org/1999/xlink" xmlns:svgjs="http://svgjs.com/svgjs"><defs id="SvgjsDefs1036"></defs><g id="SvgjsG1037"><svg xmlns="http://www.w3.org/2000/svg" fill="currentColor" style="width:1em;height:1em;vertical-align:middle" class="svg-icon" overflow="hidden" viewBox="0 0 1024 1024" width="288" height="288"><path d="M896 448h-42.666667v-42.666667a42.666667 42.666667 0 0 0-85.333333 0v42.666667h-42.666667a42.666667 42.666667 0 0 0 0 85.333333h42.666667v42.666667a42.666667 42.666667 0 0 0 85.333333 0v-42.666667h42.666667a42.666667 42.666667 0 0 0 0-85.333333z m-328.533333 73.386667A209.92 209.92 0 0 0 640 362.666667a213.333333 213.333333 0 0 0-426.666667 0 209.92 209.92 0 0 0 72.533334 158.72A341.333333 341.333333 0 0 0 85.333333 832a42.666667 42.666667 0 0 0 85.333334 0 256 256 0 0 1 512 0 42.666667 42.666667 0 0 0 85.333333 0 341.333333 341.333333 0 0 0-200.533333-310.613333zM426.666667 490.666667a128 128 0 1 1 128-128 128 128 0 0 1-128 128z" fill="#374151" class="color000 svgShape"></path></svg></g></svg>