<svg id="SvgjsSvg1032" width="288" height="288" xmlns="http://www.w3.org/2000/svg" version="1.1" xmlns:xlink="http://www.w3.org/1999/xlink" xmlns:svgjs="http://svgjs.com/svgjs"><defs id="SvgjsDefs1033"></defs><g id="SvgjsG1034"><svg xmlns="http://www.w3.org/2000/svg" width="288" height="288" fill="none" viewBox="0 0 24 24"><path fill="#6b7280" d="M18 11C20.2091 11 22 12.7909 22 15C22 17.2091 20.2091 19 18 19H13V14.4182L14.1213 15.5396C14.5119 15.9301 15.145 15.9301 15.5356 15.5396C15.9261 15.1491 15.9261 14.5159 15.5356 14.1254L12.7586 11.3484C12.5752 11.1351 12.3034 11 12 11C11.6965 11 11.4246 11.1352 11.2412 11.3486L8.46446 14.1254C8.07394 14.5159 8.07394 15.1491 8.46446 15.5396C8.85499 15.9301 9.48815 15.9301 9.87868 15.5396L11 14.4183V19H7C4.23858 19 2 16.7614 2 14C2 11.4673 3.88316 9.37436 6.32568 9.04508C7.13649 6.69118 9.37075 5 12 5C15.3137 5 18 7.68629 18 11Z" class="color000 svgShape"></path></svg></g></svg>