<svg id="SvgjsSvg1037" width="288" height="288" xmlns="http://www.w3.org/2000/svg" version="1.1" xmlns:xlink="http://www.w3.org/1999/xlink" xmlns:svgjs="http://svgjs.com/svgjs"><defs id="SvgjsDefs1038"></defs><g id="SvgjsG1039"><svg xmlns="http://www.w3.org/2000/svg" width="288" height="288" viewBox="0 0 24 24"><path fill="none" d="M0 0h24v24H0z"></path><path d="M19.5 9.5c-1.03 0-1.9.62-2.29 1.5h-2.92c-.39-.88-1.26-1.5-2.29-1.5s-1.9.62-2.29 1.5H6.79c-.39-.88-1.26-1.5-2.29-1.5C3.12 9.5 2 10.62 2 12s1.12 2.5 2.5 2.5c1.03 0 1.9-.62 2.29-1.5h2.92c.39.88 1.26 1.5 2.29 1.5s1.9-.62 2.29-1.5h2.92c.39.88 1.26 1.5 2.29 1.5 1.38 0 2.5-1.12 2.5-2.5s-1.12-2.5-2.5-2.5z" fill="#6b7280" class="color000 svgShape"></path></svg></g></svg>