<svg id="SvgjsSvg1011" width="288" height="288" xmlns="http://www.w3.org/2000/svg" version="1.1" xmlns:xlink="http://www.w3.org/1999/xlink" xmlns:svgjs="http://svgjs.com/svgjs"><defs id="SvgjsDefs1012"></defs><g id="SvgjsG1013"><svg xmlns="http://www.w3.org/2000/svg" width="288" height="288" viewBox="0 0 16 16"><path fill="#6b7280" d="M2.75,9.25 L13.25,9.25 C13.6642136,9.25 14,9.58578644 14,10 C14,10.3796958 13.7178461,10.693491 13.3517706,10.7431534 L13.25,10.75 L2.75,10.75 C2.33578644,10.75 2,10.4142136 2,10 C2,9.62030423 2.28215388,9.30650904 2.64822944,9.25684662 L2.75,9.25 L13.25,9.25 L2.75,9.25 Z M2.75,5.25 L13.25,5.25 C13.6642136,5.25 14,5.58578644 14,6 C14,6.37969577 13.7178461,6.69349096 13.3517706,6.74315338 L13.25,6.75 L2.75,6.75 C2.33578644,6.75 2,6.41421356 2,6 C2,5.62030423 2.28215388,5.30650904 2.64822944,5.25684662 L2.75,5.25 L13.25,5.25 L2.75,5.25 Z" class="color212121 svgShape"></path></svg></g></svg>